<svg width="90" height="24" viewBox="0 0 90 24" fill="none" xmlns="http://www.w3.org/2000/svg">
<g clip-path="url(#clip0_163_47)">
<path d="M33.0458 3.69309C33.6581 1.65257 32.5005 0 30.4608 0H29.5361L25.3811 13.8501C25.2964 14.1059 25.1368 14.3303 24.9232 14.4945C24.7095 14.6586 24.4515 14.7549 24.1826 14.7708H18.6465C18.5337 14.7772 18.4211 14.7546 18.3195 14.7052C18.2178 14.6558 18.1306 14.5812 18.0659 14.4885C18.0013 14.3958 17.9615 14.2881 17.9503 14.1757C17.9391 14.0632 17.9569 13.9498 18.002 13.8462L22.157 0H17.5392L13.3842 13.8501C13.3001 14.1066 13.1409 14.3319 12.9272 14.4968C12.7135 14.6617 12.4552 14.7585 12.1857 14.7747H6.64962C6.5368 14.7812 6.42422 14.7586 6.3226 14.7092C6.22098 14.6597 6.13371 14.5851 6.0691 14.4924C6.00448 14.3997 5.96468 14.292 5.95348 14.1796C5.94228 14.0672 5.96006 13.9537 6.00512 13.8501L9.04977 3.69309C9.65886 1.65257 8.49892 0 6.46075 0H1.10958L0 3.69309H3.51053C3.62334 3.68668 3.73592 3.70925 3.83754 3.75867C3.93916 3.80809 4.02643 3.8827 4.09104 3.9754C4.15566 4.0681 4.19546 4.1758 4.20666 4.28824C4.21786 4.40068 4.20009 4.51412 4.15503 4.61775L1.10722 14.7708C0.494983 16.809 1.65808 18.4639 3.69309 18.4639H11.8662C12.8459 18.4365 13.7946 18.1143 14.5882 17.5392C14.8572 17.8446 15.1909 18.086 15.565 18.246C15.9391 18.406 16.3442 18.4804 16.7507 18.4639H24.9247C26.0029 18.4008 27.0373 18.0149 27.8933 17.3563C28.7494 16.6977 29.3876 15.7968 29.725 14.7708L33.0458 3.69309Z" fill="#002E53"/>
<path d="M85.3832 13.8501L89.5383 0H76.6167C75.5385 0.063082 74.5042 0.448997 73.6482 1.1076C72.7921 1.76621 72.1539 2.66705 71.8164 3.69309L68.4988 14.7708C67.8865 16.809 69.0496 18.4639 71.0847 18.4639H79.2514C80.2311 18.4365 81.1798 18.1142 81.9734 17.5392C82.2424 17.8446 82.5761 18.086 82.9502 18.246C83.3243 18.406 83.7294 18.4804 84.136 18.4639H88.4343L89.5415 14.7708H86.0309C85.9187 14.7764 85.8069 14.7534 85.7059 14.7042C85.6049 14.6549 85.518 14.5808 85.4534 14.4889C85.3887 14.397 85.3484 14.2902 85.3362 14.1785C85.3239 14.0668 85.3401 13.9538 85.3832 13.8501ZM80.7656 13.8501C80.6804 14.1054 80.5208 14.3294 80.3072 14.4931C80.0935 14.6568 79.8357 14.7527 79.567 14.7684H74.0246C73.9118 14.7749 73.7992 14.7523 73.6976 14.7029C73.596 14.6535 73.5087 14.5788 73.4441 14.4861C73.3795 14.3934 73.3397 14.2857 73.3285 14.1733C73.3173 14.0609 73.3351 13.9474 73.3801 13.8438L76.1478 4.61145C76.2327 4.35546 76.3922 4.13067 76.6057 3.96592C76.8192 3.80117 77.0771 3.70397 77.3462 3.6868H83.8071L80.7656 13.8501Z" fill="#002E53"/>
<path d="M69.9676 3.69309C70.5798 1.65493 69.4167 0 67.3817 0H58.1533C57.0751 0.063082 56.0407 0.448997 55.1846 1.1076C54.3286 1.76621 53.6904 2.66705 53.353 3.69309L47.2637 24.0016H51.8814L53.5418 18.4655H61.8519C62.9301 18.4024 63.9645 18.0165 64.8206 17.3579C65.6766 16.6993 66.3148 15.7984 66.6522 14.7724L69.9676 3.69388V3.69309ZM65.076 4.61145L62.3083 13.8501C62.223 14.1048 62.0639 14.3283 61.8512 14.4922C61.6384 14.6562 61.3817 14.7532 61.1137 14.7708H54.653L57.7008 4.61932C57.7849 4.36282 57.9441 4.13751 58.1578 3.97263C58.3715 3.80774 58.6299 3.7109 58.8993 3.69467H64.4354C64.547 3.68937 64.658 3.71243 64.7583 3.76169C64.8585 3.81095 64.9446 3.8848 65.0086 3.97635C65.0726 4.0679 65.1123 4.17416 65.1241 4.28522C65.1359 4.39628 65.1193 4.50852 65.076 4.61145Z" fill="#002E53"/>
<path d="M37.1103 14.7708C36.9975 14.7772 36.8849 14.7546 36.7833 14.7052C36.6816 14.6558 36.5944 14.5812 36.5298 14.4885C36.4651 14.3958 36.4253 14.2881 36.4141 14.1756C36.4029 14.0632 36.4207 13.9498 36.4658 13.8461L37.2991 11.0714H45.6092C46.6875 11.0083 47.7218 10.6224 48.5779 9.96381C49.4339 9.3052 50.0721 8.40436 50.4095 7.37831L51.5167 3.68522C52.1227 1.65335 50.9659 -0.000793457 48.9246 -0.000793457H39.6891C38.6108 0.0622885 37.5765 0.448204 36.7204 1.10681C35.8644 1.76541 35.2262 2.66626 34.8888 3.6923L31.571 14.7708C30.9588 16.809 32.1219 18.4639 34.1569 18.4639H47.0737L48.1809 14.7708H37.1103ZM39.235 4.61066C39.3199 4.35466 39.4794 4.12988 39.6929 3.96513C39.9065 3.80038 40.1643 3.70318 40.4335 3.68601H45.9696C46.0824 3.67959 46.195 3.70216 46.2966 3.75158C46.3983 3.801 46.4855 3.87561 46.5501 3.96831C46.6148 4.06101 46.6545 4.16871 46.6657 4.28115C46.6769 4.3936 46.6592 4.50703 46.6141 4.61066L46.0633 6.45996C45.9784 6.71595 45.8189 6.94074 45.6053 7.10549C45.3918 7.27024 45.1339 7.36743 44.8648 7.38461H38.404L39.235 4.61066Z" fill="#002E53"/>
</g>
<defs>
<clipPath id="clip0_163_47">
<rect width="89.5385" height="24" fill="white"/>
</clipPath>
</defs>
</svg>
